#
# Blender v2.79 (sub 0) OBJ File: ''
# www.blender.org
#
o Triangle
v  0.500000 -0.500000 -0.100000
v  0.500000 -0.500000  0.100000
v -0.500000 -0.500000  0.100000
v -0.500000 -0.500000 -0.100000
v  0.000000  0.500000 -0.100000
v  0.000000  0.500000  0.100000
# 6 vertices
#
# 0 texture vertices
vn  0.0000 -1.0000  0.0000
vn  0.0000  0.0000 -1.0000
vn  0.0000  0.0000  1.0000
vn  0.8944  0.4472  0.0000
vn -0.8944  0.4472  0.0000
# 5 normal vectors

s off
f 4//1 1//1 3//1
f 1//1 2//1 3//1
f 1//4 5//4 2//4
f 2//4 5//4 6//4
f 3//5 6//5 4//5
f 4//5 6//5 5//5
f 2//3 6//3 3//3
f 1//2 4//2 5//2